<?xml version="1.0" encoding="UTF-8"?>
<svg width="80px" height="90px" viewBox="0 0 80 90" version="1.1" xmlns="http://www.w3.org/2000/svg" xmlns:xlink="http://www.w3.org/1999/xlink">
    <!-- Generator: Sketch 41.2 (35397) - http://www.bohemiancoding.com/sketch -->
    <title>Group 2</title>
    <desc>Created with Sketch.</desc>
    <defs></defs>
    <g id="Page-3" stroke="none" stroke-width="1" fill="none" fill-rule="evenodd">
        <g id="homepage" transform="translate(-18.000000, -18.000000)">
            <g id="Group-2" transform="translate(18.000000, 18.000000)">
                <path d="M39.7734218,0 L32.8263547,13.5133843 C32.0380614,14.9820668 30.6256778,14.8458427 29.2132968,14.0255384 L24.183803,11.3093721 L27.9323591,32.0656469 C28.7206524,35.8577032 26.1914562,35.8577032 24.9432892,34.218083 L16.1658462,23.9700507 L14.7408454,29.1742449 C14.5765151,29.8576661 13.8539961,30.5754743 12.770043,30.4045366 L1.67087125,27.9707325 L4.58613989,39.0245247 C5.21022201,41.4841198 5.69701803,42.5024765 3.95610399,43.1511813 L0,45.0903558 L19.1065098,61.2762673 C19.8627586,61.8882699 20.2448424,62.9896184 19.9756142,63.9868118 L18.3033876,69.7101027 C24.8820412,68.9192254 30.7766176,67.7293644 37.3586057,66.9965666 C37.9396588,66.9318739 38.9124137,67.931949 38.9084224,68.6342184 L38.0367624,89.6021016 L41.2353371,89.6021016 L40.7318411,68.6791871 C40.727822,67.9769177 41.6103224,66.9318739 42.1913783,66.9965666 C48.7733636,67.7293673 54.6679483,68.9192254 61.2465991,69.7101027 L59.574378,63.9868118 C59.3051498,62.9896184 59.6872309,61.8882699 60.4434797,61.2762673 L79.5499867,45.0903558 L75.5938855,43.1511813 C73.8529659,42.5024765 74.3397647,41.4841198 74.9638468,39.0245247 L77.8791238,27.9707325 L66.779941,30.4045366 C65.6959907,30.5754743 64.9734717,29.8576661 64.8091358,29.1742449 L63.3841378,23.9700507 L54.6066976,34.218083 C53.3585278,35.8577032 50.829326,35.8577032 51.6176221,32.0656469 L55.3661727,11.3093721 L50.3366899,14.0255384 C48.9242729,14.8458427 47.5119253,14.9820668 46.7236293,13.5133843" id="Shape" fill="#FF0000"></path>
                <g id="Group" transform="translate(25.842074, 36.920601)" fill="#FFFFFF">
                    <path d="M33.9695376,14.3282461 L45.2552302,7.81244849 C45.7314341,7.53751209 46.3494388,7.69711426 46.6252768,8.17487983 L52.7290924,18.7469985 C53.0081827,19.2303971 52.8387616,19.837109 52.3579438,20.1147093 L41.0722512,26.6305069 L52.3579438,33.1463046 C52.8387616,33.4239049 53.0081827,34.0306168 52.7290924,34.5140154 L46.6252768,45.0861341 C46.3494388,45.5638996 45.7314341,45.7235018 45.2552302,45.4485654 L33.9695376,38.9327678 L33.9695376,51.9643631 C33.9695376,52.5195636 33.5288203,52.9696426 32.9706396,52.9696426 L20.7630085,52.9696426 C20.2113324,52.9696426 19.7641105,52.5142359 19.7641105,51.9643631 L19.7641105,38.9327678 L8.47841789,45.4485654 C8.00221406,45.7235018 7.38420935,45.5638996 7.10837127,45.0861341 L1.00455574,34.5140154 C0.725465384,34.0306168 0.89488653,33.4239049 1.3757043,33.1463046 L12.6613969,26.6305069 L1.3757043,20.1147093 C0.89488653,19.837109 0.725465384,19.2303971 1.00455574,18.7469985 L7.10837127,8.17487983 C7.38420935,7.69711426 8.00221406,7.53751209 8.47841789,7.81244849 L19.7641105,14.3282461 L19.7641105,1.29665084 C19.7641105,0.741450301 20.2048278,0.291371336 20.7630085,0.291371336 L32.9706396,0.291371336 C33.5223158,0.291371336 33.9695376,0.746778029 33.9695376,1.29665084 L33.9695376,14.3282461 Z M24.3115795,7.50757287 C24.3115795,7.30830297 24.4728176,7.1467628 24.6687978,7.1467628 L29.1514688,7.1467628 C29.348755,7.1467628 29.508687,7.31413075 29.508687,7.50757287 C29.508687,7.70684278 29.347449,7.86838295 29.1514688,7.86838295 L24.6687978,7.86838295 C24.4715116,7.86838295 24.3115795,7.70101499 24.3115795,7.50757287 Z M22.882375,16.1670147 C22.882375,15.9677448 23.0506259,15.8062046 23.2494362,15.8062046 L30.5708304,15.8062046 C30.7735527,15.8062046 30.9378916,15.9735726 30.9378916,16.1670147 C30.9378916,16.3662846 30.7696407,16.5278248 30.5708304,16.5278248 L23.2494362,16.5278248 C23.0467139,16.5278248 22.882375,16.3604568 22.882375,16.1670147 Z M24.9182287,16.5278248 L28.9020379,16.5278248 L28.9020379,36.0115689 L24.9182287,36.0115689 L24.9182287,16.5278248 Z M26.2171856,7.86838295 L27.603081,7.86838295 L27.603081,15.4453946 L26.2171856,15.4453946 L26.2171856,7.86838295 Z M26.7368964,39.2588596 L27.0833702,39.2588596 L27.0833702,48.4443104 L26.7368964,49.0007317 L26.7368964,39.2588596 Z M26.3904225,37.8156193 L27.429844,37.8156193 L27.429844,39.2588596 L26.3904225,39.2588596 L26.3904225,37.8156193 Z M25.6974749,37.4487532 L25.6974749,36.372379 L28.1227917,36.372379 L28.1227917,37.4620986 C28.1227917,37.6555847 27.963956,37.8156193 27.7802512,37.8156193 L26.0513079,37.8156193 C25.8610687,37.8156193 25.6974749,37.6815488 25.6974749,37.4487532 Z" id="Combined-Shape"></path>
                </g>
            </g>
        </g>
    </g>
</svg>