<?xml version="1.0" encoding="UTF-8" standalone="no"?>
<svg width="234px" height="260px" viewBox="0 0 234 260" version="1.1" xmlns="http://www.w3.org/2000/svg" xmlns:xlink="http://www.w3.org/1999/xlink">
    <!-- Generator: Sketch 3.8.3 (29802) - http://www.bohemiancoding.com/sketch -->
    <title>Group</title>
    <desc>Created with Sketch.</desc>
    <defs>
        <path d="M183.040583,243.899495 C183.040583,243.899495 180.792311,243.899495 178.04976,243.899495 L4.99082296,243.899495 C2.23446755,243.899495 0,241.663256 0,238.901976 L0,43.2462502 L41.5476489,0" id="path-1"></path>
        <mask id="mask-2" maskContentUnits="userSpaceOnUse" maskUnits="objectBoundingBox" x="0" y="0" width="183.040583" height="240.286727" fill="white">
            <use xlink:href="#path-1"></use>
        </mask>
        <path d="M0.159800251,43.3696289 L41.5860844,42.9274289 L41.5860844,0 L197.666078,0 C200.426042,0 202.663434,2.23376823 202.663434,5.00130254 L202.663434,194.420459" id="path-3"></path>
        <mask id="mask-4" maskContentUnits="userSpaceOnUse" maskUnits="objectBoundingBox" x="0" y="0" width="202.503634" height="194.420459" fill="white">
            <use xlink:href="#path-3"></use>
        </mask>
        <path d="M181.026549,252.866768 C180.944268,252.327368 180.877566,251.439815 180.877566,250.892951 L180.877566,179.391007 C180.877566,178.840298 181.324998,178.39386 181.8867,178.39386 L212.395344,178.39386 C212.952673,178.39386 213.404478,178.843237 213.404478,179.402822 L213.404478,250.733253 C213.404478,251.290487 213.338551,252.190902 213.241783,252.727913 C213.241783,252.727913 211.548487,267.888183 197.028718,267.888184 C182.508949,267.888185 181.026549,252.866768 181.026549,252.866768 Z" id="path-5"></path>
        <mask id="mask-6" maskContentUnits="userSpaceOnUse" maskUnits="objectBoundingBox" x="0" y="0" width="32.5269119" height="89.4943245" fill="white">
            <use xlink:href="#path-5"></use>
        </mask>
    </defs>
    <g id="Page-1" stroke="none" stroke-width="1" fill="none" fill-rule="evenodd">
        <g id="Artboard-1-Copy-8" transform="translate(-636.000000, -1300.000000)">
            <g id="Group" transform="translate(636.000000, 1300.000000)">
                <use id="Rectangle-102" stroke="#AFC1D7" mask="url(#mask-2)" stroke-width="4" xlink:href="#path-1"></use>
                <use id="Rectangle-102-Copy" stroke="#AFC1D7" mask="url(#mask-4)" stroke-width="4" xlink:href="#path-3"></use>
                <ellipse id="Oval-7" stroke="#AEC1D9" stroke-width="3" cx="100.5" cy="125.5" rx="52.5" ry="52.5"></ellipse>
                <circle id="Oval-7-Copy" stroke="#AEC1D9" stroke-width="3" cx="100.5" cy="125.5" r="68.5"></circle>
                <path d="M153.5,171.5 L168.5,186.5" id="Line" stroke="#AEC1D9" stroke-width="3" stroke-linecap="square"></path>
                <use id="Rectangle-101" stroke="#AEC1D9" mask="url(#mask-6)" stroke-width="6" transform="translate(197.141022, 223.141022) rotate(-45.000000) translate(-197.141022, -223.141022) " xlink:href="#path-5"></use>
                <path d="M145.5,179.5 L160.5,194.5" id="Line-Copy-3" stroke="#AEC1D9" stroke-width="3" stroke-linecap="square"></path>
                <path d="M207,252.79899 L226.79899,233" id="Line-Copy-4" stroke="#AEC1D9" stroke-width="2" stroke-linecap="square"></path>
                <path d="M164,209.79899 L183.79899,190" id="Line-Copy-5" stroke="#AEC1D9" stroke-width="2" stroke-linecap="square"></path>
                <path d="M213.265888,232.45381 L185,205" id="Line-Copy-6" stroke="#AEC1D9" stroke-width="3" stroke-linecap="square"></path>
                <path d="M206.265888,239.45381 L178,212" id="Line-Copy-7" stroke="#AEC1D9" stroke-width="3" stroke-linecap="square"></path>
                <path d="M95.1604158,140.602691 L95.1604158,138.489954 C95.1604158,135.438208 95.6299083,132.927728 96.5689072,130.958438 C97.5079061,128.989149 99.2554612,126.909037 101.811625,124.718039 C105.358954,121.718459 107.595564,119.462288 108.521521,117.949456 C109.447478,116.436624 109.91045,114.610821 109.91045,112.47199 C109.91045,109.811493 109.056235,107.757464 107.347778,106.30984 C105.639322,104.862217 103.181007,104.138416 99.9727612,104.138416 C97.9121802,104.138416 95.903796,104.379683 93.9475483,104.862224 C91.9913006,105.344765 89.7481702,106.225064 87.2180898,107.503145 L84.909729,102.221303 C89.8394733,99.6390559 94.9908484,98.3479518 100.364009,98.3479518 C105.34592,98.3479518 109.219232,99.5738486 111.984062,102.025679 C114.748892,104.47751 116.131287,107.933495 116.131287,112.39374 C116.131287,114.297821 115.876978,115.973648 115.368354,117.421272 C114.859729,118.868895 114.109846,120.238248 113.11868,121.529371 C112.127515,122.820495 109.988716,124.900607 106.70222,127.76977 C104.067806,130.012935 102.326772,131.877863 101.479064,133.364611 C100.631357,134.851359 100.20751,136.833661 100.20751,139.311574 L100.20751,140.602691 L95.1604158,140.602691 Z M93.2433027,152.222745 C93.2433027,148.675416 94.8082774,146.901778 97.9382737,146.901778 C99.4511053,146.901778 100.618316,147.358229 101.43994,148.271144 C102.261564,149.18406 102.67237,150.501247 102.67237,152.222745 C102.67237,153.892076 102.255043,155.189701 101.420377,156.115658 C100.585712,157.041616 99.425022,157.504587 97.9382737,157.504587 C96.581942,157.504587 95.4603768,157.093781 94.5735445,156.272157 C93.6867122,155.450533 93.2433027,154.100743 93.2433027,152.222745 L93.2433027,152.222745 Z" id="?" fill="#AFC1D7"></path>
            </g>
        </g>
    </g>
</svg>