<?xml version="1.0" encoding="UTF-8" standalone="no"?>
<svg width="44px" height="44px" viewBox="0 0 44 44" version="1.1" xmlns="http://www.w3.org/2000/svg" xmlns:xlink="http://www.w3.org/1999/xlink">
    <!-- Generator: Sketch 3.8.3 (29802) - http://www.bohemiancoding.com/sketch -->
    <title>Shape</title>
    <desc>Created with Sketch.</desc>
    <defs></defs>
    <g id="Page-1" stroke="none" stroke-width="1" fill="none" fill-rule="evenodd">
        <g id="Artboard-1-Copy-2" transform="translate(-239.000000, -591.000000)" fill="#5B636D">
            <g id="Search" transform="translate(99.000000, 488.000000)">
                <g id="Group" transform="translate(140.000000, 95.000000)">
                    <path d="M16.3971404,35.7211324 C22.647984,35.7211324 27.7211324,30.647984 27.7211324,24.3971404 C27.7211324,18.1462968 22.647984,13.0731484 16.3971404,13.0731484 C10.1462968,13.0731484 5.07314841,18.1462968 5.07314841,24.3971404 C5.07314841,30.647984 10.1462968,35.7211324 16.3971404,35.7211324 L16.3971404,35.7211324 Z M31.4957964,35.7211324 L44,48.225336 L40.225336,52 L27.7211324,39.4957964 L27.7211324,37.4901916 L27.014012,36.7830712 C24.183014,39.2592508 20.40835,40.676008 16.3971404,40.676008 C7.31529883,40.676008 7.10542736e-15,33.4814984 7.10542736e-15,24.3971404 C7.10542736e-15,15.3127824 7.31278238,8 16.3971404,8 C25.4814984,8 32.676008,15.3127824 32.676008,24.3971404 C32.676008,28.40835 31.2592508,32.183014 28.7830712,35.014012 L29.4901916,35.7211324 L31.4957964,35.7211324 L31.4957964,35.7211324 Z" id="Shape" transform="translate(22.000000, 30.000000) scale(-1, 1) translate(-22.000000, -30.000000) "></path>
                </g>
            </g>
        </g>
    </g>
</svg>