<?xml version="1.0" encoding="UTF-8" standalone="no"?>
<svg width="140px" height="141px" viewBox="0 0 140 141" version="1.1" xmlns="http://www.w3.org/2000/svg" xmlns:xlink="http://www.w3.org/1999/xlink">
    <!-- Generator: Sketch 3.8.3 (29802) - http://www.bohemiancoding.com/sketch -->
    <title>Combined Shape</title>
    <desc>Created with Sketch.</desc>
    <defs></defs>
    <g id="Page-1" stroke="none" stroke-width="1" fill="none" fill-rule="evenodd">
        <g id="Artboard-1-Copy-4" transform="translate(-60.000000, -174.000000)" fill="#FFFFFF">
            <g id="Header" transform="translate(-1.000000, -239.000000)">
                <g id="Group-2" transform="translate(0.000000, 354.000000)">
                    <path d="M150.303913,95.0682354 L178.943128,78.5333769 C180.375062,77.7066493 182.210807,78.1961274 183.038388,79.629539 L199.762459,108.596479 C200.593473,110.035837 200.098302,111.863142 198.664133,112.69116 L170.024918,129.226018 L198.664133,145.760877 C200.098302,146.588895 200.593473,148.416199 199.762459,149.855557 L183.038388,178.822498 C182.210807,180.255909 180.375062,180.745387 178.943128,179.91866 L150.303913,163.383801 L150.303913,196.453518 C150.303913,198.109554 148.969006,199.452037 147.306978,199.452037 L113.858837,199.452037 C112.203676,199.452037 110.861902,198.106973 110.861902,196.453518 L110.861902,163.383801 L82.2226873,179.91866 C80.7907532,180.745387 78.9550077,180.255909 78.1274271,178.822498 L61.4033563,149.855557 C60.5723425,148.416199 61.067513,146.588895 62.5016822,145.760877 L91.1408973,129.226018 L62.5016822,112.69116 C61.067513,111.863142 60.5723425,110.035837 61.4033563,108.596479 L78.1274271,79.629539 C78.9550077,78.1961274 80.7907532,77.7066493 82.2226873,78.5333769 L110.861902,95.0682354 L110.861902,61.9985184 C110.861902,60.3424824 112.196809,59 113.858837,59 L147.306978,59 C148.96214,59 150.303913,60.3450632 150.303913,61.9985184 L150.303913,95.0682354 Z M123.488156,78.240005 C123.488156,77.708707 123.920017,77.2780048 124.457356,77.2780048 L136.94896,77.2780048 C137.484234,77.2780048 137.918159,77.7050028 137.918159,78.240005 C137.918159,78.7713031 137.486298,79.2020053 136.94896,79.2020053 L124.457356,79.2020053 C123.922081,79.2020053 123.488156,78.7750072 123.488156,78.240005 Z M119.519905,101.328011 C119.519905,100.796713 119.946733,100.366011 120.480965,100.366011 L140.92535,100.366011 C141.456129,100.366011 141.886411,100.793009 141.886411,101.328011 C141.886411,101.859309 141.459582,102.290011 140.92535,102.290011 L120.480965,102.290011 C119.950186,102.290011 119.519905,101.863013 119.519905,101.328011 Z M125.172545,102.290011 L136.233771,102.290011 L136.233771,154.238025 L125.172545,154.238025 L125.172545,102.290011 Z M128.779157,79.2020053 L132.627158,79.2020053 L132.627158,99.4040105 L128.779157,99.4040105 L128.779157,79.2020053 Z M130.222157,162.896027 L131.184158,162.896027 L131.184158,187.38649 L130.222157,188.870034 L130.222157,162.896027 Z M129.260157,159.048026 L132.146158,159.048026 L132.146158,162.896027 L129.260157,162.896027 L129.260157,159.048026 Z M127.336157,158.069879 L127.336157,155.200025 L134.070158,155.200025 L134.070158,158.105461 C134.070158,158.621338 133.629144,159.048026 133.119079,159.048026 L128.31859,159.048026 C127.790382,159.048026 127.336157,158.690564 127.336157,158.069879 Z" id="Combined-Shape"></path>
                </g>
            </g>
        </g>
    </g>
</svg>