<?xml version="1.0" encoding="UTF-8"?>
<svg width="16px" height="16px" viewBox="0 0 16 16" version="1.1" xmlns="http://www.w3.org/2000/svg" xmlns:xlink="http://www.w3.org/1999/xlink">
    <!-- Generator: Sketch 41.2 (35397) - http://www.bohemiancoding.com/sketch -->
    <title>Shape</title>
    <desc>Created with Sketch.</desc>
    <defs></defs>
    <g id="Page-1" stroke="none" stroke-width="1" fill="none" fill-rule="evenodd">
        <path d="M16,12.8753367 C16,13.2123694 15.8655317,13.54854 15.6224545,13.7907553 L13.7907553,15.6224545 C13.54854,15.8646698 13.2115074,16 12.8753367,16 C12.539166,16 12.2021334,15.8655317 11.9599181,15.6224545 L8,11.6625364 L4.04008189,15.6224545 C3.79786661,15.8646698 3.46083396,16 3.12466329,16 C2.78849262,16 2.45145997,15.8655317 2.20924469,15.6224545 L0.377545523,13.7907553 C0.135330245,13.54854 0,13.2115074 0,12.8753367 C0,12.539166 0.134468269,12.2021334 0.377545523,11.9599181 L4.33746364,8 L0.377545523,4.04008189 C0.135330245,3.79786661 0,3.46083396 0,3.12466329 C0,2.78849262 0.134468269,2.45145997 0.377545523,2.20924469 L2.20924469,0.377545523 C2.45145997,0.135330245 2.78849262,0 3.12466329,0 C3.46083396,0 3.79786661,0.134468269 4.04008189,0.377545523 L8,4.33746364 L11.9599181,0.377545523 C12.2021334,0.135330245 12.539166,7.65588553e-16 12.8753367,7.65588553e-16 C13.2115074,7.65588553e-16 13.54854,0.134468269 13.7907553,0.377545523 L15.6224545,2.20924469 C15.8646698,2.45145997 16,2.78849262 16,3.12466329 C16,3.46083396 15.8655317,3.79786661 15.6224545,4.04008189 L11.6625364,8 L15.6224545,11.9599181 C15.8646698,12.2021334 16,12.539166 16,12.8753367 L16,12.8753367 Z" id="Shape" fill="#FFFFFF"></path>
    </g>
</svg>